<?xml version="1.0" encoding="utf-8"?>
<!-- Svg Vector Icons : http://www.onlinewebfonts.com/icon -->
<!DOCTYPE svg PUBLIC "-//W3C//DTD SVG 1.1//EN" "http://www.w3.org/Graphics/SVG/1.1/DTD/svg11.dtd">
<svg version="1.1" xmlns="http://www.w3.org/2000/svg" xmlns:xlink="http://www.w3.org/1999/xlink" x="0px" y="0px" viewBox="0 0 1000 1000" enable-background="new 0 0 1000 1000" xml:space="preserve">
<metadata> Svg Vector Icons : http://www.onlinewebfonts.com/icon </metadata>
<g><path d="M414.4,503.8c0,48.9,40,88.5,89.3,88.5c49.3,0,89.3-39.6,89.3-88.5c0-48.9-40-88.5-89.3-88.5C454.4,415.3,414.4,454.9,414.4,503.8z M696.1,354h-96.2c-6.9-27.2-13.7-54.5-41.2-54.5H448.8c-27.5,0-34.4,27.2-41.2,54.5h-96.2c-15.1,0-27.5,12.3-27.5,27.2v245.1c0,15,12.4,27.2,27.5,27.2h384.8c15.1,0,27.5-12.3,27.5-27.2V381.2C723.6,366.2,711.2,354,696.1,354L696.1,354z M503.7,624.7c-67.4,0-122-54.1-122-120.9c0-66.8,54.6-120.9,122-120.9c67.4,0,122,54.1,122,120.9C625.7,570.5,571.1,624.7,503.7,624.7z M696.1,435.7h-55v-27.2h55V435.7z"/><path d="M690.5,10H309.4c-66.8,0-121.2,47.2-121.2,105.3v769.4c0,58,54.4,105.3,121.2,105.3h381.1c66.8,0,121.2-47.3,121.2-105.3V115.3C811.8,57.2,757.4,10,690.5,10L690.5,10z M771.7,884.7c0,38.7-36.4,70.2-81.1,70.2H309.4c-44.7,0-81.1-31.5-81.1-70.2V115.3h0c0-38.7,36.4-70.2,81.1-70.2h381.1c44.7,0,81.2,31.5,81.2,70.2L771.7,884.7z"/></g>
</svg>