<?xml version="1.0" encoding="utf-8"?>
<!-- Generator: Adobe Illustrator 17.1.0, SVG Export Plug-In . SVG Version: 6.00 Build 0)  -->
<!DOCTYPE svg PUBLIC "-//W3C//DTD SVG 1.1//EN" "http://www.w3.org/Graphics/SVG/1.1/DTD/svg11.dtd">
<svg version="1.1" xmlns="http://www.w3.org/2000/svg" xmlns:xlink="http://www.w3.org/1999/xlink" x="0px" y="0px"
	 viewBox="0 0 28 28" enable-background="new 0 0 28 28" xml:space="preserve">
<g id="bg" display="none">
	<rect display="inline" fill="#303133" width="28" height="28"/>
</g>
<g id="icons">
	<g id="lights" display="none">
		<path display="inline" fill="#C1C4CC" d="M11,23c0,1,1,2,3,2s3-1,3-2c0-0.6,0-2,0-2h-6V23z"/>
		<path display="inline" fill="#C1C4CC" d="M14,3c-4,0-7,2-7,6s4,7,4,10v1h6v-1c0-3,4-6,4-10S18,3,14,3z"/>
	</g>
	<g id="camera" display="none">
		<path display="inline" fill-rule="evenodd" clip-rule="evenodd" fill="#C1C4CC" d="M15,8c0,0,0,0,0-1s-1-2-2-2S4,5,3,5S1,6,1,7
			s0,7,0,7s0,1,2,1V9c0,0,0-1,1-1S15,8,15,8z"/>
		<path display="inline" fill-rule="evenodd" clip-rule="evenodd" fill="#C1C4CC" d="M19,7c-1,0-3,0-3,0v2c0,0-9,0-10,0s-2,1-2,2
			s0,9,0,10s1,2,2,2s12,0,13,0s2-1,2-2s0-11,0-12S20,7,19,7z"/>
		<polygon display="inline" fill-rule="evenodd" clip-rule="evenodd" fill="#C1C4CC" points="25,9 22,12 22,18 25,21 27,21 27,9 		
			"/>
	</g>
	<g id="objects" display="none">
		<polygon display="inline" fill-rule="evenodd" clip-rule="evenodd" fill="#C1C4CC" points="24.5,8 14.5,3 13.5,3 3.5,8 13.5,13 
			14.5,13 		"/>
		<polygon display="inline" fill-rule="evenodd" clip-rule="evenodd" fill="#C1C4CC" points="3.5,20 13.5,26 13.5,14 3.5,9 		"/>
		<polygon display="inline" fill-rule="evenodd" clip-rule="evenodd" fill="#C1C4CC" points="14.5,26 24.5,20 24.5,9 14.5,14 		"/>
	</g>
	<path id="helpers" fill-rule="evenodd" clip-rule="evenodd" fill="#C1C4CC" d="M14,2c-4,0-8,4-8,8s8,16,8,16s8-12,8-16S18,2,14,2z
		 M14,15c-2.8,0-5-2.2-5-5s2.2-5,5-5s5,2.2,5,5S16.8,15,14,15z"/>
	<path id="tools" display="none" fill-rule="evenodd" clip-rule="evenodd" fill="#C1C4CC" d="M25.8,21.6c0,0-9.1-9.1-9.8-9.8
		c-0.7-0.7,0-5.6-2.8-8.4c-2.8-2.8-6.3-0.7-6.3-0.7l4.9,4.9c0,0,0,1.4-1.4,2.8c-1.4,1.4-2.8,1.4-2.8,1.4L2.8,6.9
		c0,0-2.1,3.5,0.7,6.3c2.8,2.8,7.7,2.1,8.4,2.8c0.7,0.7,9.8,9.8,9.8,9.8s2.1,0.7,3.5-0.7C26.5,23.7,25.8,21.6,25.8,21.6z M23.7,23.7
		c-0.8,0.8-2,0.8-2.8,0s-0.8-2,0-2.8c0.8-0.8,2-0.8,2.8,0C24.5,21.7,24.5,23,23.7,23.7z"/>
</g>
</svg>
